PathFileType	4	(X/Y/Z)	53_1_2_p0_0-191_filt_butterworth.trc
DataRate	CameraRate	NumFrames	NumMarkers	Units	OrigDataRate	OrigDataStartFrame	OrigNumFrames
48.0	48.0	7	27	m	48.0	0	191
Frame#	Time	RHip			RKnee			RAnkle			RBigToe			RSmallToe			RHeel			LHip			LKnee			LAnkle			LBigToe			LSmallToe			LHeel			Neck			Head			Nose			RShoulder			RElbow			RWrist			RThumb			RIndex			RPinky			LShoulder			LElbow			LWrist			LThumb			LIndex			LPinky			
		X1	Y1	Z1	X2	Y2	Z2	X3	Y3	Z3	X4	Y4	Z4	X5	Y5	Z5	X6	Y6	Z6	X7	Y7	Z7	X8	Y8	Z8	X9	Y9	Z9	X10	Y10	Z10	X11	Y11	Z11	X12	Y12	Z12	X13	Y13	Z13	X14	Y14	Z14	X15	Y15	Z15	X16	Y16	Z16	X17	Y17	Z17	X18	Y18	Z18	X19	Y19	Z19	X20	Y20	Z20	X21	Y21	Z21	X22	Y22	Z22	X23	Y23	Z23	X24	Y24	Z24	X25	Y25	Z25	X26	Y26	Z26	X27	Y27	Z27	
0	0.0	0.4060775068153422	0.8106328418937733	0.7723514844741429	0.39669972214411253	0.3604480646950253	0.8532226928627138	0.3763517900351493	-0.09145033588880111	0.9021428640704185	0.30942251526489917	-0.09188312512439437	0.7033339945806073	0.37377950055962295	-0.09223542165068724	0.7019527710681007	0.3444160368870649	-0.16694737569673046	1.0028756034794555	0.19754710969038886	0.8189558872812053	0.7846067198578259	0.18392100058267835	0.364645582539631	0.8612367916320168	0.17847991508029143	-0.07194049002559512	0.9089091673515841	0.18985306651970094	-0.0837664319026977	0.7248312511443595	0.11831323958245409	-0.07529548911686848	0.7534728330243275	0.18605814303737336	-0.1543930314151507	0.9737054812501571	0.31199547919706716	1.4048390755054203	0.7546132117035572	0.30945717636386816	1.6472768288125044	0.6894189689136517	0.2988981019486517	1.5189367125614688	0.626307824423686	0.46318131068760116	1.315448642388128	0.7588364994285756	0.5157539400530321	1.0386551888506204	0.7261729390861522	0.35587827589611265	0.933164941265554	0.5983756650553224	0.2593849769966835	0.9720520877733966	0.5056219811651128	0.23792649676440691	0.9551127860946251	0.5240637347475651	0.2570163034730998	0.9052113869202836	0.5392469506612887	0.15996885472717873	1.3155966176931049	0.7981217049033933	0.10828671993185218	1.053540117708725	0.7490345705405276	0.21190645879224587	0.9677864928583517	0.5633433183200462	0.26154187795172956	0.9961434740406222	0.45718410363047873	0.2628653594789228	0.9751318095893942	0.4557222312878226	0.2679614596288502	0.9036246317166415	0.544591842530645	
1	0.0208333333333333	0.4070789893494712	0.8101186368168793	0.7693804998017837	0.396302371639078	0.35920929097967935	0.8530115979874111	0.37648669199180534	-0.0901889478162323	0.9017954993484844	0.3091519118802623	-0.09082185203766384	0.7020443981511691	0.37490740186551386	-0.08882913403671339	0.6963161688019041	0.3458093488650768	-0.16594065318405465	0.9995242280987326	0.19921619373341815	0.8196208345582872	0.7807053918704665	0.1830256991009149	0.36286741271525763	0.8637695186356474	0.17835831105402564	-0.0710746415319503	0.9083343766545495	0.19129593522206098	-0.08086311663370821	0.723530220561077	0.11779324576153402	-0.07341156496400522	0.7504337746483378	0.1859328652895812	-0.1536132182146863	0.9745160760316355	0.31199730232550343	1.404874061026025	0.7545723450175337	0.30944749631626745	1.6456924865855505	0.6894221869990194	0.29759643705871325	1.5198229018113276	0.6312802540405447	0.4630430961384534	1.3139236322239498	0.7583941797278312	0.5193427969912818	1.0381509896731973	0.7330113170206752	0.35464261813432363	0.9337311693088839	0.5967056707574772	0.2590808802654302	0.969022469376694	0.5168885184932482	0.2383819257639409	0.9529943401780872	0.532851353602158	0.2581866727931945	0.9056456077502224	0.5385406958396164	0.15840349897798656	1.3139042153385838	0.7917198545989781	0.1075048505792843	1.053095091039792	0.7533776901863268	0.20784231828012487	0.9729719843527127	0.5588024161949012	0.2586219379633189	0.9952084552756513	0.4613387935824894	0.26231545907175713	0.973235856492695	0.4633407655325047	0.2665354738016956	0.9045276736129059	0.5547600643218142	
2	0.0416666666666666	0.40795090324525674	0.8095553147704715	0.7669050171550599	0.39595223017164893	0.3580769725135886	0.8528160391296851	0.3766116158788542	-0.08916631943336051	0.9014543242400844	0.30892695029445666	-0.09045051457544495	0.7017895283605389	0.375752330552405	-0.08630818278023601	0.6921362666981157	0.34701349374600093	-0.1649324780741791	0.9966753622908643	0.20060716061143877	0.8200640762884013	0.7773071733048328	0.1822665427168028	0.36132973025413984	0.8658865224081187	0.17825623855517078	-0.07029702688585378	0.9078663432191444	0.19192586615030002	-0.0800966053330671	0.7247077410978525	0.11764766888465782	-0.07334656329864422	0.7506117924911228	0.18582988988296273	-0.15297704582582083	0.9751783457147152	0.31199784134317826	1.4049081211296315	0.7545540427702101	0.30944510810899006	1.644711312519524	0.6894182323171265	0.296660834256864	1.5200091962454145	0.6348686371346766	0.4629515745722201	1.3129365345257737	0.7581419151699028	0.5216357200165633	1.0382476520743276	0.7371309245398451	0.3542244699169798	0.9348625540855889	0.5961269083253966	0.25891727390933256	0.9667605189899421	0.5245041033929663	0.23869753903100435	0.9508645274158278	0.5404915736896145	0.2590080520228005	0.9055356222543804	0.5405995417179849	0.15747515048934219	1.313378981521169	0.7877374101812484	0.10618293743702296	1.0531135661101692	0.756737958876049	0.20591989598652205	0.9760867667873756	0.5569047845757582	0.2565425783399347	0.9946716443754509	0.4647365913031032	0.2620975686014829	0.9719276576617487	0.4686194414023368	0.2662858025236715	0.9055150663503883	0.5617592398535296	
3	0.0625	0.4087016566337691	0.8089512009917513	0.7648870934644263	0.395646457756177	0.357048738805099	0.8526353510642947	0.37672675491261	-0.08836225787036536	0.9011214608658061	0.30878100523796065	-0.09056914609512785	0.7021397812691057	0.37635278307172026	-0.08454168665722456	0.6891989972792292	0.3480410159924346	-0.16393127639313196	0.9942929682458616	0.20173687137772509	0.8203009978893373	0.7743837891667491	0.18163346585643092	0.36001625969872286	0.867619513162909	0.1781722974815761	-0.06960548276532455	0.9074947745639975	0.19192015666096887	-0.08089986177060231	0.7274770762343323	0.1177739515356002	-0.07459944426871681	0.7530019789789066	0.1857477300643568	-0.15247366500944376	0.9757032062937937	0.3119970008865598	1.4049397893866957	0.7545522716171704	0.3094469338247891	1.6442134035607008	0.6894085676831887	0.29606713087465636	1.519677536014375	0.6371655228914905	0.46289368018555255	1.3123446298174506	0.7580383929598843	0.5229493053139119	1.0388124191805945	0.7389567423511167	0.3544673480394335	0.9362945849913222	0.5964130740241063	0.25889453263972473	0.9651226621334901	0.5291621566609939	0.23895508371145804	0.9486842593244701	0.5471289349594322	0.25958980535822646	0.9048914724829633	0.5447812080938164	0.15705124332178097	1.3137115305982614	0.7856963967866456	0.10451864428692367	1.0535459503148572	0.7592169692316667	0.20566774721353395	0.9774608432537486	0.5571521363382499	0.25522693010668274	0.9943469000245958	0.46756670429645514	0.26222368705034665	0.9709947104057076	0.4722052318363941	0.26695314520788493	0.9063529776841778	0.5663422420064433	
4	0.0833333333333333	0.4093396576460785	0.8083146207179209	0.7632887856603379	0.3953822144070142	0.3561222193625559	0.8524688685659981	0.37683230230938664	-0.08775657025742649	0.9007990313462374	0.30874745144125276	-0.09097777995410182	0.7026655529372591	0.3767472558748836	-0.08339876444364844	0.6872902930677375	0.3489044600669753	-0.16294547416694044	0.9923410081537347	0.2026221870855515	0.8203469847788842	0.7719069644620399	0.1811164029458882	0.3589107255914517	0.8690002011134961	0.1781050877310907	-0.06899784584838148	0.9072093782077375	0.1914561041106184	-0.08270584971614234	0.7309514894501623	0.11806953629813595	-0.07666916802215434	0.7565994265379141	0.18568489908060215	-0.15209222652644505	0.9761015737632684	0.3119946855921163	1.4049675993676733	0.7545609982139982	0.3094498955464175	1.6440788566553544	0.6893946559124209	0.29579116424364266	1.5190098612688543	0.6382634604963948	0.4628563471751021	1.312005198622832	0.7580423003028699	0.5236001490683625	1.0397125341185818	0.7389137511619444	0.355214769297037	0.937762751421736	0.5973378641186323	0.25901303116794094	0.963965324327688	0.5315560990940574	0.23923630695116282	0.9464144474206365	0.5529079773611076	0.2600412969957812	0.903723200486177	0.5504434147645335	0.1569992115358382	1.3145924769272619	0.7851188395516107	0.10270963491084195	1.0543426510488576	0.7609163138751529	0.20661442726325707	0.9774242168432395	0.5590461843580091	0.25459812428866857	0.9940480809076616	0.4700183400666805	0.2627058134005947	0.9702245120337241	0.474745109773752	0.26827820126744284	0.906807575369363	0.5692619436612079	
5	0.1041666666666666	0.40987331441325514	0.8076538991861818	0.7620721506732495	0.3951566601385122	0.3552950436943054	0.8523159264095543	0.3769284512854982	-0.08732906372472324	0.9004891578019655	0.3088596636348121	-0.09147644950975965	0.7029372394253893	0.37697424541332014	-0.08274853491548043	0.6861960865861355	0.3496163704322204	-0.16198349742163273	0.9907834442044952	0.20327996878819238	0.8202174223748316	0.7698484241965293	0.18070528841126354	0.35799685247477153	0.8700602964733584	0.17805320920156392	-0.06847195281304395	0.906999861668993	0.19071100585579986	-0.08494753293951837	0.7342442442249894	0.11843186575604012	-0.079054694706892	0.7603992275943712	0.1856399101785376	-0.15182188113771444	0.9763843641175372	0.3119908000963166	1.4049900846430194	0.7545741892162791	0.30945091535662894	1.6441877687497604	0.6893779598200398	0.295808771695376	1.5181881121594973	0.6382549991347988	0.46282650973752126	1.3117755214657691	0.7581123244039549	0.5239048474649514	1.040815240014873	0.7374269316797842	0.35631025048514353	0.939002542772482	0.5986749748740013	0.2592731442053159	0.9631449310928847	0.532379351488884	0.23962295589597996	0.9440160032209483	0.5579732408441385	0.26047189113177416	0.902040848314226	0.5569438815275588	0.15718648919204964	1.315712434865571	0.7855267636125858	0.10095357309063352	1.05545407570717	0.7619375854284811	0.20828849143778833	0.9763068906472558	0.5620886415106695	0.25457929191099843	0.9935890457092211	0.4722807061179144	0.26355594663447407	0.9694045598549486	0.47688604815348634	0.2700016701154529	0.9066450271610309	0.571271217698476	
6	0.125	0.4103110350663693	0.8069773616337362	0.7611992454336158	0.3949669549650229	0.3545648413086926	0.8521758593697218	0.3770153950572586	-0.08705954540243524	0.9001939623535782	0.3093263448705193	-0.09164264473331774	0.7008940556976627	0.3770761186197426	-0.08243443453523433	0.6856656973044224	0.3501892915507674	-0.16105377218323644	0.9895842385881531	0.20372707753892214	0.8199276960949684	0.7681798933760418	0.18039005667864583	0.35725836489112717	0.8708315094559741	0.17801526179084484	-0.06802564033733086	0.9068559324663926	0.1899059637586095	-0.08665757638251737	0.7349609738312579	0.11844066933368713	-0.08068604834344618	0.7617089688675402	0.18561127660500187	-0.15165177960414147	0.9765624933509972	0.31198546542946687	1.405003666839257	0.7545775896774555	0.30946014799151	1.644398880999682	0.6893989251740089	0.2962864412279812	1.5175681699889032	0.6365382448183987	0.46276067470664894	1.3114379229026782	0.7581397028138301	0.5244378952284044	1.0423920945742404	0.7345441278269874	0.35744265318995216	0.9394316166171537	0.5998629943067953	0.25983301829949446	0.9624298593755711	0.5324545833617937	0.24036580563130566	0.941124583696213	0.563134611119158	0.26139014722258275	0.898971128507632	0.5647983394435019	0.15743876753834207	1.3165135181755045	0.7863515645782279	0.09960419065097635	1.0569565423690497	0.7627151589159339	0.2097612480519606	0.974510868651493	0.5655924213314791	0.2552074558608492	0.9924412865150878	0.4745971327080024	0.2648631193482268	0.9678369106986247	0.4805113158680808	0.2717075445520072	0.9050255668803768	0.573958577035148	
